<svg width="16" height="12" fill="none" xmlns="http://www.w3.org/2000/svg"><path d="M1.455 1.455C1.455.65 2.105 0 2.909 0h11.637C15.349 0 16 .651 16 1.455v8.727c0 .803-.651 1.454-1.454 1.454H2.909a1.455 1.455 0 01-1.454-1.454v-.727h1.454v.727h11.637V2.489L9.502 7.533a1.09 1.09 0 01-1.543 0l-5.05-5.05v.426H1.455V1.455z" fill="#4F5D77"/><path d="M.727 5.09c0-.4.326-.726.728-.726h2.181a.727.727 0 110 1.454H1.455a.727.727 0 01-.728-.727zm0 1.455A.727.727 0 00.727 8h3.637a.727.727 0 000-1.455H.727z" fill="#4F5D77"/></svg>