<svg width="14" height="14" fill="none" xmlns="http://www.w3.org/2000/svg"><path d="M12.265 7.722c-.155 0-.316-.049-.47-.084a6.616 6.616 0 01-.921-.275 1.401 1.401 0 00-1.742.705l-.155.317a8.559 8.559 0 01-1.869-1.41 8.58 8.58 0 01-1.405-1.874l.295-.197a1.408 1.408 0 00.703-1.747 7.295 7.295 0 01-.274-.923 5.238 5.238 0 01-.085-.48 2.115 2.115 0 00-.73-1.267A2.104 2.104 0 004.235 0H2.127A2.102 2.102 0 00.525.718 2.115 2.115 0 00.02 2.403a13.402 13.402 0 003.82 7.794A13.333 13.333 0 0011.626 14h.266A2.104 2.104 0 0014 11.88V9.765a2.117 2.117 0 00-1.735-2.044zm.351 4.228a.706.706 0 01-.508.678c-.1.03-.204.04-.307.026a11.93 11.93 0 01-6.946-3.43A11.991 11.991 0 011.467 2.24a.77.77 0 01.176-.578.703.703 0 01.527-.24h2.107a.701.701 0 01.703.557 7.853 7.853 0 00.429 1.663l-.984.458a.703.703 0 00-.345.937A10.194 10.194 0 008.998 9.97c.171.07.363.07.534 0a.702.702 0 00.4-.367l.436-.986a9.6 9.6 0 001.11.324c.187.042.377.078.569.106a.703.703 0 01.555.704l.014 2.199z" fill="#4F5D77"/></svg>