<svg width="22" height="22" viewBox="0 0 22 22" fill="none" xmlns="http://www.w3.org/2000/svg">
<g clip-path="url(#clip0_27_1115)">
<path d="M11 22C17.0751 22 22 17.0751 22 11C22 4.92487 17.0751 0 11 0C4.92487 0 0 4.92487 0 11C0 17.0751 4.92487 22 11 22Z" fill="#394858"/>
<path d="M13.7656 11.4308H11.8027V18.6216H8.82891V11.4308H7.41455V8.90362H8.82891V7.26827C8.82891 6.09882 9.38442 4.26758 11.8292 4.26758L14.032 4.27679V6.72982H12.4337C12.1716 6.72982 11.8029 6.86081 11.8029 7.41867V8.90598H14.0254L13.7656 11.4308Z" fill="#131E1F"/>
</g>
<defs>
<clipPath id="clip0_27_1115">
<rect width="22" height="22" fill="white"/>
</clipPath>
</defs>
</svg>
