<svg width="22" height="22" viewBox="0 0 22 22" fill="none" xmlns="http://www.w3.org/2000/svg">
<g clip-path="url(#clip0_27_1122)">
<path d="M13.1055 11C13.1055 12.1628 12.1628 13.1055 11 13.1055C9.83716 13.1055 8.89453 12.1628 8.89453 11C8.89453 9.83716 9.83716 8.89453 11 8.89453C12.1628 8.89453 13.1055 9.83716 13.1055 11Z" fill="#394858"/>
<path d="M15.9241 7.27434C15.8229 7.00008 15.6615 6.75183 15.4516 6.54807C15.2479 6.33826 14.9998 6.17679 14.7254 6.07558C14.5028 5.98914 14.1685 5.88625 13.5526 5.85822C12.8864 5.82784 12.6867 5.82129 11.0002 5.82129C9.31349 5.82129 9.11375 5.82767 8.44774 5.85805C7.83191 5.88625 7.49739 5.98914 7.27499 6.07558C7.00056 6.17679 6.75232 6.33826 6.54872 6.54807C6.33891 6.75183 6.17744 6.99991 6.07607 7.27434C5.98962 7.4969 5.88673 7.83142 5.8587 8.44725C5.82832 9.11327 5.82178 9.313 5.82178 10.9997C5.82178 12.6862 5.82832 12.886 5.8587 13.5521C5.88673 14.168 5.98962 14.5023 6.07607 14.7249C6.17744 14.9993 6.33875 15.2474 6.54855 15.4512C6.75232 15.661 7.0004 15.8224 7.27483 15.9236C7.49739 16.0103 7.83191 16.1131 8.44774 16.1412C9.11375 16.1716 9.31332 16.1779 11 16.1779C12.6869 16.1779 12.8866 16.1716 13.5525 16.1412C14.1683 16.1131 14.5028 16.0103 14.7254 15.9236C15.2762 15.7112 15.7116 15.2758 15.9241 14.7249C16.0106 14.5023 16.1135 14.168 16.1417 13.5521C16.172 12.886 16.1784 12.6862 16.1784 10.9997C16.1784 9.313 16.172 9.11327 16.1417 8.44725C16.1136 7.83142 16.0107 7.4969 15.9241 7.27434ZM11.0002 14.243C9.20876 14.243 7.75655 12.791 7.75655 10.9995C7.75655 9.2081 9.20876 7.75606 11.0002 7.75606C12.7914 7.75606 14.2437 9.2081 14.2437 10.9995C14.2437 12.791 12.7914 14.243 11.0002 14.243ZM14.3719 8.38582C13.9533 8.38582 13.6139 8.04643 13.6139 7.62782C13.6139 7.20921 13.9533 6.86983 14.3719 6.86983C14.7905 6.86983 15.1299 7.20921 15.1299 7.62782C15.1297 8.04643 14.7905 8.38582 14.3719 8.38582Z" fill="#394858"/>
<path d="M11 0C4.9258 0 0 4.9258 0 11C0 17.0742 4.9258 22 11 22C17.0742 22 22 17.0742 22 11C22 4.9258 17.0742 0 11 0ZM17.2783 13.6041C17.2478 14.2765 17.1408 14.7356 16.9847 15.1374C16.6566 15.9859 15.9859 16.6566 15.1374 16.9847C14.7358 17.1408 14.2765 17.2476 13.6043 17.2783C12.9307 17.309 12.7156 17.3164 11.0002 17.3164C9.28461 17.3164 9.0696 17.309 8.39586 17.2783C7.72363 17.2476 7.2644 17.1408 6.86275 16.9847C6.44112 16.8261 6.05943 16.5775 5.74388 16.2561C5.42262 15.9407 5.17404 15.5589 5.01543 15.1374C4.85933 14.7358 4.75241 14.2765 4.72186 13.6043C4.69081 12.9306 4.68359 12.7154 4.68359 11C4.68359 9.28461 4.69081 9.06943 4.72169 8.39586C4.75224 7.72346 4.85899 7.2644 5.01509 6.86258C5.17371 6.44112 5.42245 6.05927 5.74388 5.74388C6.05927 5.42245 6.44112 5.17387 6.86258 5.01526C7.2644 4.85916 7.72346 4.75241 8.39586 4.72169C9.06943 4.69098 9.28461 4.68359 11 4.68359C12.7154 4.68359 12.9306 4.69098 13.6041 4.72186C14.2765 4.75241 14.7356 4.85916 15.1374 5.01509C15.5589 5.17371 15.9407 5.42245 16.2563 5.74388C16.5775 6.05943 16.8263 6.44112 16.9847 6.86258C17.141 7.2644 17.2478 7.72346 17.2785 8.39586C17.3092 9.06943 17.3164 9.28461 17.3164 11C17.3164 12.7154 17.3092 12.9306 17.2783 13.6041Z" fill="#394858"/>
</g>
<defs>
<clipPath id="clip0_27_1122">
<rect width="22" height="22" fill="white"/>
</clipPath>
</defs>
</svg>
