<?xml version="1.0" standalone="no"?>
<!DOCTYPE svg PUBLIC "-//W3C//DTD SVG 20010904//EN"
 "http://www.w3.org/TR/2001/REC-SVG-20010904/DTD/svg10.dtd">
<svg version="1.0" xmlns="http://www.w3.org/2000/svg"
 width="242.000000pt" height="242.000000pt" viewBox="0 0 242.000000 242.000000"
 preserveAspectRatio="xMidYMid meet">
<metadata>
Created by potrace 1.14, written by Peter Selinger 2001-2017
</metadata>
<g transform="translate(0.000000,242.000000) scale(0.100000,-0.100000)"
fill="#000000" stroke="none">
<path d="M6 1517 c2 -22 7 -44 11 -50 4 -6 8 -20 9 -32 1 -11 5 -33 9 -50 4
-16 9 -42 12 -57 3 -15 9 -26 13 -23 5 3 7 -3 6 -12 -2 -10 2 -38 9 -63 7 -25
11 -53 9 -63 -1 -9 2 -15 7 -11 5 3 9 -9 9 -26 0 -18 6 -32 15 -35 8 -3 23 -8
33 -12 9 -3 20 -6 24 -5 4 1 25 -5 47 -13 23 -8 44 -14 46 -14 19 1 71 -15 77
-25 6 -8 8 -7 8 2 0 12 0 12 61 -19 16 -8 19 -8 14 2 -6 9 -4 9 6 3 8 -5 16
-9 19 -10 50 -9 87 -18 95 -23 16 -9 36 -10 30 -1 -3 5 1 11 7 14 10 5 10 7 1
12 -10 4 -10 11 -2 26 8 16 8 19 -1 13 -9 -6 -9 -2 0 16 10 17 10 24 1 27 -6
2 -8 8 -5 14 9 13 11 188 3 188 -3 0 -6 7 -6 15 0 8 3 12 7 10 9 -6 6 68 -3
82 -4 7 -3 15 3 18 8 5 8 11 1 19 -6 7 -8 16 -4 20 12 12 12 36 0 36 -8 0 -8
3 -2 8 12 9 13 34 1 47 -6 7 -111 11 -291 11 l-282 0 3 -39z"/>
<path d="M1236 1552 c-4 -7 -11 -10 -16 -7 -5 3 -22 -9 -40 -26 -28 -29 -31
-37 -29 -87 2 -44 8 -62 26 -80 13 -12 23 -20 23 -15 0 4 5 2 12 -5 7 -7 32
-12 57 -12 47 0 48 16 1 25 -35 7 -49 25 -56 76 -8 56 17 119 44 114 9 -2 25
-4 35 -4 9 -1 17 -8 17 -17 0 -8 4 -13 9 -9 5 3 11 -5 13 -17 2 -13 7 -22 13
-20 8 2 9 16 6 68 -1 9 -8 14 -18 12 -10 -1 -24 1 -30 5 -8 5 -13 4 -13 -2 0
-6 -5 -11 -11 -11 -5 0 -7 6 -3 13 6 9 4 9 -8 -1 -13 -10 -17 -10 -20 0 -3 9
-6 9 -12 0z"/>
<path d="M1391 1551 c-9 -6 -10 -11 -2 -15 6 -4 9 -11 6 -16 -3 -5 7 -8 21 -7
36 3 46 47 11 47 -12 0 -28 -4 -36 -9z"/>
<path d="M647 1544 c-8 -8 18 -34 33 -34 6 0 8 -5 5 -10 -4 -6 -10 -8 -13 -6
-4 2 -7 -24 -7 -59 0 -40 3 -61 10 -57 5 3 2 -4 -7 -15 -10 -11 -18 -24 -18
-29 0 -12 65 -12 76 -1 5 4 0 5 -9 1 -10 -3 -17 -3 -16 2 1 5 1 11 -1 14 -1 3
-4 16 -6 30 -2 13 -8 27 -12 30 -15 11 -13 32 2 27 9 -4 15 -3 15 1 -3 20 2
32 12 27 6 -4 8 -10 5 -13 -3 -3 -1 -11 4 -17 6 -7 11 -24 12 -39 1 -14 6 -26
10 -26 4 0 8 -7 8 -15 0 -8 2 -15 4 -15 2 0 12 -3 22 -7 12 -4 15 -3 10 5 -4
7 -2 12 5 12 7 0 10 3 6 6 -3 4 3 25 14 47 24 46 33 87 20 87 -12 0 -34 -57
-26 -69 3 -6 2 -11 -3 -11 -11 0 -36 51 -33 68 1 6 -2 12 -7 12 -5 0 -12 14
-15 30 -6 28 -10 30 -50 30 -24 0 -46 -3 -50 -6z m51 -74 c-20 -31 -31 -21
-19 18 1 1 8 2 16 2 13 0 13 -3 3 -20z m125 -25 c-3 -9 -8 -14 -10 -11 -3 3
-2 9 2 15 9 16 15 13 8 -4z"/>
<path d="M839 1540 c-1 -5 -2 -16 -3 -22 -1 -7 3 -20 9 -28 6 -8 10 -40 9 -70
-3 -81 -3 -82 -16 -74 -6 4 -8 3 -4 -4 3 -5 0 -12 -6 -14 -7 -3 15 -5 50 -5
34 0 62 4 62 9 0 5 -5 6 -12 2 -8 -5 -9 -2 -5 10 4 9 3 15 -2 12 -5 -3 -9 10
-9 29 0 24 4 33 12 28 8 -5 7 -2 -1 8 -12 15 -14 111 -2 103 4 -2 9 3 13 11 4
12 -4 15 -44 15 -28 0 -51 -4 -51 -10z"/>
<path d="M1505 1505 c2 -14 -2 -28 -7 -32 -7 -3 -8 -1 -4 5 5 8 2 10 -9 6 -13
-6 -13 -9 4 -23 14 -12 19 -28 17 -52 -5 -64 6 -84 47 -85 20 -1 37 3 37 8 0
5 5 6 12 2 7 -4 8 -3 4 4 -4 7 -17 12 -28 12 -18 0 -20 4 -15 40 3 22 1 40 -3
40 -4 0 -6 8 -3 18 3 14 12 17 37 14 26 -3 35 -10 45 -37 6 -18 23 -50 36 -70
14 -20 20 -33 14 -29 -7 4 -9 3 -6 -3 4 -6 0 -18 -7 -28 -10 -14 -15 -15 -21
-5 -6 9 -4 11 5 5 8 -5 11 -4 6 3 -3 6 -19 8 -33 6 -35 -7 -37 -9 -19 -27 8
-8 13 -17 10 -20 -5 -5 22 -2 36 3 3 1 8 2 12 1 8 -1 76 132 80 156 2 10 10
25 19 33 13 12 14 17 4 27 -10 9 -17 9 -31 -2 -12 -9 -14 -14 -6 -15 10 0 10
-5 2 -20 -6 -10 -9 -24 -8 -31 2 -6 -3 -14 -11 -17 -8 -2 -11 0 -7 6 3 5 -1
13 -10 16 -8 3 -12 10 -9 16 3 5 2 10 -3 10 -6 0 -8 9 -5 19 6 24 -20 31 -61
18 -20 -7 -30 -6 -36 3 -4 6 -11 11 -16 10 -5 0 -10 8 -12 20 -3 15 -11 20
-31 20 -24 0 -28 -4 -26 -25z"/>
<path d="M957 1471 c-9 -12 -9 -13 1 -7 11 6 14 0 11 -20 0 -4 5 -10 13 -15 7
-5 14 -12 14 -16 5 -26 18 -53 25 -53 5 0 8 -3 8 -7 -4 -22 2 -33 14 -28 6 4
4 0 -5 -8 -10 -8 -15 -17 -11 -20 10 -10 -6 -8 -28 3 -11 6 -26 7 -34 3 -13
-8 -13 -11 1 -31 12 -17 19 -20 33 -12 10 5 21 6 25 3 3 -3 6 1 6 11 0 10 5
14 12 10 7 -4 8 -3 4 5 -4 6 0 18 9 27 9 9 14 21 12 28 -2 6 3 17 11 25 13 13
12 16 -7 25 -11 5 -21 17 -21 28 0 10 -4 18 -10 18 -5 0 -10 7 -10 16 0 9 5
12 12 8 6 -4 8 -3 5 3 -11 18 -76 21 -90 4z"/>
<path d="M1091 1462 c11 -29 11 -35 1 -28 -4 2 -8 -4 -8 -15 0 -11 5 -17 11
-15 5 2 9 9 8 15 -2 6 2 11 8 11 5 0 8 4 4 9 -3 6 3 14 12 20 22 12 11 24 -21
26 -21 0 -23 -2 -15 -23z"/>
<path d="M1403 1482 c-24 -3 -29 -13 -15 -26 9 -10 10 -126 1 -120 -4 2 -10 0
-13 -4 -3 -5 16 -9 43 -9 31 1 48 5 48 14 0 6 -4 10 -9 7 -4 -3 -8 26 -8 64 0
73 -5 81 -47 74z"/>
<path d="M1350 1379 c0 -7 -3 -10 -6 -6 -4 3 -13 -1 -21 -9 -8 -8 -20 -12 -26
-8 -7 3 -3 -2 8 -10 17 -15 20 -15 28 -1 4 9 13 12 19 9 6 -4 8 -3 4 4 -3 5
-1 12 6 14 9 3 9 6 0 12 -7 4 -12 2 -12 -5z"/>
<path d="M635 1300 c-8 -14 3 -30 21 -30 17 0 16 9 19 -142 1 -70 -2 -125 -7
-122 -4 3 -8 -2 -8 -10 0 -10 -6 -13 -15 -10 -8 4 -15 2 -15 -4 0 -5 6 -12 13
-14 21 -6 276 -2 284 5 9 10 14 96 5 101 -8 4 -32 -19 -33 -31 0 -5 -9 -18
-19 -30 -15 -18 -31 -23 -65 -23 -47 0 -47 0 -49 55 -1 17 -5 36 -10 44 -5 7
-5 16 0 20 14 10 16 32 4 46 -8 9 -8 15 0 20 7 4 7 13 -1 27 -8 15 -8 19 0 14
6 -4 11 -3 11 3 0 5 -5 13 -10 16 -11 7 25 45 42 45 5 0 6 5 2 11 -4 8 -9 7
-15 -2 -7 -11 -9 -9 -9 6 0 11 -4 16 -8 10 -9 -13 -42 -15 -42 -3 0 7 -5 6
-13 -1 -10 -8 -17 -7 -25 1 -9 9 -12 9 -12 0 0 -9 -5 -10 -19 -2 -13 7 -22 7
-26 0z"/>
<path d="M1055 1210 c6 -10 3 -12 -13 -8 -12 4 -22 2 -22 -4 0 -5 -4 -7 -9 -4
-12 8 -52 -29 -49 -45 8 -39 61 -47 77 -12 7 15 7 23 0 23 -5 0 -4 6 3 13 6 8
22 12 33 9 17 -3 22 -11 23 -38 1 -30 -2 -34 -23 -34 -13 0 -27 -4 -30 -10 -3
-5 -14 -10 -24 -10 -27 0 -61 -31 -66 -61 -7 -38 39 -83 67 -68 16 9 19 8 12
-2 -4 -7 9 -3 30 9 20 12 34 16 30 10 -5 -8 0 -7 11 2 11 9 16 10 11 3 -5 -9
-1 -13 13 -13 10 0 21 -5 23 -10 4 -12 68 10 68 23 0 5 -6 7 -14 4 -20 -8 -42
53 -24 65 10 6 9 8 -2 8 -13 0 -13 2 -1 9 11 7 12 13 3 23 -7 9 -8 18 -3 24 6
5 2 23 -7 44 -14 28 -24 36 -50 38 -22 2 -30 7 -25 15 3 7 -4 3 -17 -8 -13
-11 -20 -15 -17 -8 4 6 2 15 -4 19 -8 5 -9 3 -4 -6z m46 -127 c0 -5 2 -18 3
-31 2 -13 -1 -25 -6 -28 -4 -3 -6 -9 -4 -13 3 -4 -6 -8 -20 -9 -16 -1 -24 3
-24 14 0 8 -5 12 -11 9 -18 -12 -5 29 15 48 20 17 45 23 47 10z"/>
<path d="M2043 1214 c4 -7 -5 -11 -25 -12 -17 0 -35 -7 -39 -14 -5 -7 -9 -9
-9 -4 0 13 -38 -33 -45 -55 -4 -11 -11 -16 -17 -13 -6 4 -6 0 1 -13 6 -11 8
-23 4 -26 -3 -3 -2 -14 2 -24 5 -10 7 -24 6 -30 -1 -7 4 -13 11 -13 7 0 19 -9
26 -20 7 -11 19 -20 27 -20 8 0 15 -6 15 -12 0 -8 3 -9 8 -3 4 6 14 10 22 10
8 0 19 -4 23 -10 6 -6 10 -6 14 3 2 6 16 12 29 12 14 0 23 4 20 9 -3 5 5 12
18 15 19 5 23 11 18 28 -3 12 -7 17 -10 10 -2 -6 -10 -12 -18 -12 -8 0 -14 -4
-14 -9 0 -8 -21 -9 -78 -2 -7 0 -11 5 -8 10 4 5 2 11 -3 13 -6 1 -12 15 -15
30 l-4 26 68 0 c37 0 73 2 78 6 12 7 5 59 -9 64 -5 2 -9 10 -9 17 0 7 -15 17
-32 20 -18 4 -39 12 -47 19 -10 7 -13 7 -8 0z m18 -44 c1 -5 2 -17 2 -25 0
-31 -4 -35 -27 -35 -13 0 -26 7 -30 15 -3 8 0 15 7 15 8 0 6 4 -3 10 -11 7
-11 10 -2 10 7 0 10 5 7 10 -4 6 5 10 19 10 14 0 27 -4 27 -10z"/>
<path d="M1243 1202 c-24 -4 -31 -26 -11 -38 7 -5 8 -3 3 7 -8 12 -6 12 8 0
10 -8 15 -16 13 -18 -3 -3 6 -30 20 -61 14 -31 22 -62 19 -69 -2 -8 0 -11 5
-8 6 3 10 -2 10 -12 1 -25 26 -57 35 -43 3 5 10 8 14 6 4 -3 14 10 23 29 8 19
11 32 6 29 -4 -3 0 10 11 29 17 30 17 34 2 34 -9 0 -22 -7 -29 -16 -7 -9 -12
-11 -11 -6 2 11 -7 40 -22 67 -14 26 -11 36 12 43 11 4 18 9 15 13 -8 8 -96
18 -123 14z"/>
<path d="M1545 1202 c-7 -8 8 -32 16 -26 5 3 9 -1 10 -8 0 -7 2 -21 4 -30 2
-9 -3 -19 -11 -22 -7 -3 -12 -13 -10 -23 4 -21 -20 -48 -29 -33 -3 6 0 10 7
10 10 0 10 2 -1 9 -13 9 -41 72 -43 99 -2 17 -51 29 -56 14 -2 -7 -8 -9 -14
-6 -6 4 -9 1 -6 -7 3 -8 -1 -28 -8 -45 -14 -35 -8 -50 13 -33 12 11 18 2 14
-23 0 -5 4 -8 9 -8 5 0 10 -9 10 -20 0 -11 5 -20 11 -20 6 0 9 -6 6 -13 -7
-18 20 -52 43 -53 18 -1 37 29 32 49 -1 4 3 7 9 7 5 0 8 3 6 8 -3 4 3 25 14
46 10 22 19 48 19 58 0 12 4 16 12 12 6 -4 8 -3 5 3 -4 6 0 16 8 23 12 10 18
10 30 0 8 -7 15 -19 15 -26 0 -8 4 -14 9 -14 5 0 13 -10 17 -22 3 -13 16 -36
27 -52 12 -16 15 -26 8 -21 -8 4 -2 -9 12 -30 19 -28 24 -43 17 -55 -5 -10 -8
-19 -6 -21 2 -2 -2 -10 -10 -17 -12 -11 -14 -10 -14 3 0 9 -4 14 -9 10 -5 -3
-12 -1 -16 4 -10 17 -43 8 -54 -15 -8 -18 -6 -24 7 -29 14 -5 14 -7 2 -15 -11
-7 -3 -10 28 -10 23 0 42 5 42 10 0 6 6 10 13 10 14 0 39 49 31 62 -3 5 0 7 7
6 7 -2 14 2 14 7 3 15 32 79 42 88 4 5 8 12 9 15 3 29 18 62 28 62 6 0 4 5 -4
10 -22 14 -30 12 -24 -5 4 -8 1 -15 -6 -15 -6 0 -8 -4 -5 -10 3 -5 1 -10 -5
-10 -6 0 -8 -4 -5 -10 3 -5 1 -10 -5 -10 -6 0 -8 -6 -5 -12 4 -7 -3 -2 -14 11
-12 13 -21 30 -21 38 0 8 -7 21 -15 29 -15 15 -10 48 6 38 5 -3 9 1 9 9 0 16
-27 31 -34 19 -2 -4 -45 -5 -96 -2 -50 3 -93 3 -95 2z"/>
<path d="M1855 1202 c-35 -4 -59 -22 -30 -22 10 0 15 -3 12 -7 -9 -9 12 -33
29 -33 8 0 11 6 8 15 -5 11 -2 13 12 8 11 -4 15 -3 11 4 -4 6 -2 13 4 15 22 7
-16 24 -46 20z"/>
<path d="M2235 1202 c-49 -4 -64 -17 -37 -31 17 -9 20 -22 21 -96 1 -47 -2
-85 -6 -84 -21 3 -32 -2 -28 -13 4 -9 28 -13 75 -13 47 0 71 4 75 13 2 7 -3
12 -14 12 -10 0 -21 9 -24 20 -3 11 -2 20 3 20 10 0 8 33 -4 41 -4 4 -3 16 3
27 7 14 8 21 0 24 -5 2 0 14 12 26 11 13 24 21 27 17 4 -3 1 -9 -6 -14 -8 -5
-6 -12 8 -24 20 -17 44 -18 68 -3 18 11 12 72 -7 75 -43 6 -75 0 -88 -16 -8
-10 -12 -13 -9 -8 8 17 -26 30 -69 27z"/>
</g>
</svg>
