<svg width="22" height="22" viewBox="0 0 22 22" fill="none" xmlns="http://www.w3.org/2000/svg">
<path d="M11 22C17.0751 22 22 17.0751 22 11C22 4.92487 17.0751 0 11 0C4.92487 0 0 4.92487 0 11C0 17.0751 4.92487 22 11 22Z" fill="white"/>
<path d="M15.767 8.49385C16.255 8.13846 16.6655 7.69487 17 7.1841C16.5535 7.38462 16.0785 7.51744 15.5825 7.58205C16.0925 7.26974 16.482 6.77897 16.665 6.18769C16.1895 6.47846 15.6645 6.68359 15.105 6.79846C14.6535 6.30513 14.01 6 13.308 6C11.946 6 10.8495 7.13385 10.8495 8.52359C10.8495 8.72359 10.866 8.9159 10.9065 9.09897C8.8615 8.99641 7.0515 7.99128 5.8355 6.45949C5.6235 6.83744 5.4985 7.26974 5.4985 7.73487C5.4985 8.60872 5.937 9.38308 6.5915 9.83179C6.196 9.8241 5.8085 9.70615 5.48 9.52103V9.54872C5.48 10.7749 6.3325 11.7933 7.451 12.0282C7.2505 12.0846 7.0325 12.1113 6.806 12.1113C6.6485 12.1113 6.4895 12.1021 6.3405 12.0682C6.659 13.0672 7.451 13.8262 8.639 13.8262C7.802 14.4974 6.8 14.6923 5.6 14.6923C5.3985 14.6923 5.1935 14.7174 5 14.6923C6.09 15.4128 7.381 16 8.774 16C13.1155 16 15.945 12.2851 15.767 8.49385Z" fill="#404E5A"/>
</svg>
