<svg width="50" height="50" viewBox="0 0 50 50" fill="none" xmlns="http://www.w3.org/2000/svg">
<path d="M37.5399 4.84869C40.473 4.85191 43.285 6.01848 45.359 8.09247C47.433 10.1665 48.5996 12.9785 48.6028 15.9115C48.6028 15.9298 48.6028 15.9487 48.6028 15.9669C48.6028 16.0034 48.6075 16.0581 48.6116 16.1304C48.8386 20.148 48.1818 30.9953 37.2068 44.8946C37.108 45.0195 36.9682 45.1054 36.8122 45.1372C36.6562 45.1691 36.494 45.1448 36.3541 45.0687C36.2143 44.9926 36.1058 44.8695 36.0478 44.7212C35.9898 44.5729 35.9861 44.4089 36.0372 44.2581C36.0683 44.1663 39.0676 35.1818 37.0183 26.9608C34.1319 26.8254 31.413 25.5659 29.4431 23.4518C27.4732 21.3377 26.4087 18.5368 26.4772 15.6479C26.5456 12.7591 27.7417 10.0118 29.8096 7.99338C31.8775 5.975 34.653 4.84583 37.5426 4.84734L37.5399 4.84869ZM47.2514 15.873C47.2439 13.9539 46.668 12.08 45.5964 10.4879C44.5247 8.89589 43.0054 7.65703 41.2302 6.92779C39.455 6.19855 37.5036 6.01162 35.6222 6.3906C33.7409 6.76959 32.014 7.69748 30.6596 9.05715C29.3052 10.4168 28.384 12.1473 28.0124 14.0301C27.6407 15.9129 27.8352 17.8636 28.5714 19.636C29.3075 21.4083 30.5523 22.9228 32.1485 23.9882C33.7447 25.0537 35.6208 25.6223 37.5399 25.6223C37.6879 25.6224 37.8318 25.671 37.9494 25.7607C38.0671 25.8504 38.1521 25.9763 38.1913 26.119C39.7453 31.7744 38.9832 37.7068 38.2109 41.3068C46.9163 29.1122 47.4629 19.8041 47.2595 16.2061C47.2503 16.0953 47.2476 15.9841 47.2514 15.873Z" fill="#576073"/>
<path d="M12.414 4.84869C15.347 4.85191 18.159 6.01848 20.233 8.09247C22.307 10.1665 23.4736 12.9785 23.4768 15.9115C23.4768 15.9298 23.4768 15.9487 23.4768 15.9669C23.4768 16.0034 23.4815 16.0581 23.4856 16.1304C23.7126 20.148 23.0558 30.9953 12.0809 44.8946C11.982 45.0195 11.8423 45.1054 11.6863 45.1372C11.5302 45.1691 11.368 45.1448 11.2281 45.0687C11.0883 44.9926 10.9798 44.8695 10.9218 44.7212C10.8639 44.5729 10.8601 44.4089 10.9113 44.2581C10.9423 44.1663 13.9417 35.1818 11.8923 26.9608C9.00588 26.8254 6.28699 25.5659 4.3171 23.4518C2.3472 21.3377 1.28268 18.5368 1.35118 15.6479C1.41967 12.7591 2.61575 10.0118 4.68363 7.99338C6.7515 5.975 9.52703 4.84583 12.4167 4.84734L12.414 4.84869ZM22.1254 15.873C22.118 13.9539 21.542 12.08 20.4704 10.4879C19.3988 8.89589 17.8794 7.65703 16.1042 6.92779C14.3291 6.19855 12.3776 6.01162 10.4963 6.3906C8.61491 6.76959 6.88803 7.69748 5.53363 9.05715C4.17924 10.4168 3.25806 12.1473 2.8864 14.0301C2.51474 15.9129 2.70925 17.8636 3.44539 19.636C4.18153 21.4083 5.42628 22.9228 7.0225 23.9882C8.61871 25.0537 10.4948 25.6223 12.414 25.6223C12.5619 25.6224 12.7058 25.671 12.8235 25.7607C12.9411 25.8504 13.0261 25.9763 13.0653 26.119C14.6194 31.7744 13.8572 37.7068 13.0849 41.3068C21.7903 29.1122 22.3376 19.8041 22.1342 16.2061C22.1248 16.0953 22.1219 15.9841 22.1254 15.873Z" fill="#576073"/>
</svg>
