<svg width="42" height="44" viewBox="0 0 42 44" fill="none" xmlns="http://www.w3.org/2000/svg">
<path fill-rule="evenodd" clip-rule="evenodd" d="M40.1179 9.47352C42.6274 10.798 42.6273 14.3869 40.1179 15.7113L37.1151 17.2962L40.1179 18.8811C42.6274 20.2055 42.6273 23.7945 40.1179 25.1189L37.1151 26.7038L40.1179 28.2887C42.6274 29.6131 42.6273 33.202 40.1179 34.5265L23.2015 43.4548C21.8241 44.1817 20.1759 44.1817 18.7984 43.4548L1.88206 34.5265C-0.627364 33.202 -0.627345 29.6131 1.88207 28.2887L4.88492 26.7038L1.88206 25.1189C-0.627364 23.7945 -0.627345 20.2055 1.88207 18.8811L4.88492 17.2962L1.88206 15.7113C-0.627364 14.3869 -0.627347 10.798 1.88207 9.47352L18.7985 0.545234C20.1759 -0.181745 21.8241 -0.181744 23.2015 0.545234L40.1179 9.47352ZM35.9466 12.5924L21 4.70378L6.05341 12.5924L21 20.4811L35.9466 12.5924ZM9.92528 29.364L6.05341 31.4076L21 39.2962L35.9466 31.4076L32.0747 29.364L23.2015 34.0472C21.8241 34.7742 20.1759 34.7742 18.7984 34.0472L9.92528 29.364ZM23.2015 24.6396L32.0747 19.9565L35.9466 22L21 29.8886L6.05341 22L9.92528 19.9565L18.7984 24.6396C20.1759 25.3666 21.8241 25.3666 23.2015 24.6396Z" fill="#4F5D77"/>
</svg>
