<svg width="39" height="39" viewBox="0 0 39 39" fill="none" xmlns="http://www.w3.org/2000/svg">
<mask id="path-1-inside-1_178_563" fill="white">
<path d="M36.3754 25.7261C37.1592 26.0152 38.0351 25.6153 38.2627 24.8115C39.4525 20.6091 39.2004 16.1122 37.5204 12.0491C35.6471 7.51842 32.1359 3.8596 27.686 1.80145C23.2362 -0.256701 18.1744 -0.563141 13.5088 0.943166C8.84325 2.44947 4.91627 5.65798 2.51006 9.92963C0.103861 14.2013 -0.604969 19.2226 0.524758 23.9933C1.65448 28.7641 4.53986 32.9343 8.60617 35.6733C12.6725 38.4122 17.6213 39.5189 22.467 38.773C26.8125 38.104 30.789 35.9891 33.7664 32.7937C34.3359 32.1824 34.224 31.2261 33.5704 30.7056C32.9169 30.1852 31.97 30.2987 31.3918 30.9017C28.8949 33.5061 25.6001 35.2296 22.0066 35.7828C17.9128 36.413 13.7318 35.478 10.2963 33.164C6.86088 30.85 4.42317 27.3268 3.46871 23.2962C2.51426 19.2656 3.11312 15.0234 5.146 11.4144C7.17889 7.80553 10.4966 5.09481 14.4384 3.82221C18.3801 2.5496 22.6566 2.8085 26.416 4.54733C30.1754 6.28617 33.1419 9.37733 34.7246 13.2051C36.1138 16.565 36.3473 20.2761 35.414 23.7612C35.1979 24.5682 35.5916 25.4369 36.3754 25.7261Z"/>
</mask>
<path d="M36.3754 25.7261C37.1592 26.0152 38.0351 25.6153 38.2627 24.8115C39.4525 20.6091 39.2004 16.1122 37.5204 12.0491C35.6471 7.51842 32.1359 3.8596 27.686 1.80145C23.2362 -0.256701 18.1744 -0.563141 13.5088 0.943166C8.84325 2.44947 4.91627 5.65798 2.51006 9.92963C0.103861 14.2013 -0.604969 19.2226 0.524758 23.9933C1.65448 28.7641 4.53986 32.9343 8.60617 35.6733C12.6725 38.4122 17.6213 39.5189 22.467 38.773C26.8125 38.104 30.789 35.9891 33.7664 32.7937C34.3359 32.1824 34.224 31.2261 33.5704 30.7056C32.9169 30.1852 31.97 30.2987 31.3918 30.9017C28.8949 33.5061 25.6001 35.2296 22.0066 35.7828C17.9128 36.413 13.7318 35.478 10.2963 33.164C6.86088 30.85 4.42317 27.3268 3.46871 23.2962C2.51426 19.2656 3.11312 15.0234 5.146 11.4144C7.17889 7.80553 10.4966 5.09481 14.4384 3.82221C18.3801 2.5496 22.6566 2.8085 26.416 4.54733C30.1754 6.28617 33.1419 9.37733 34.7246 13.2051C36.1138 16.565 36.3473 20.2761 35.414 23.7612C35.1979 24.5682 35.5916 25.4369 36.3754 25.7261Z" stroke="#4F5D77" stroke-width="6" mask="url(#path-1-inside-1_178_563)"/>
<path d="M17 10C17 8.89543 17.8954 8 19 8C20.1046 8 21 8.89543 21 10V20H17V10Z" fill="#4F5D77"/>
<path d="M26.9216 24.0337C27.7068 24.8107 27.7068 26.0836 26.9299 26.8688C26.1581 27.6487 24.8955 27.6678 24.1084 26.9034L16.9999 20L19.8134 17L26.9216 24.0337Z" fill="#4F5D77"/>
</svg>
