<svg width="22" height="22" fill="none" xmlns="http://www.w3.org/2000/svg"><path d="M11 22c6.075 0 11-4.925 11-11S17.075 0 11 0 0 4.925 0 11s4.925 11 11 11z" fill="#fff"/><path d="M15.767 8.494A4.982 4.982 0 0017 7.184c-.447.2-.922.333-1.418.398a2.5 2.5 0 001.083-1.394c-.476.29-1 .496-1.56.61A2.436 2.436 0 0013.308 6c-1.362 0-2.458 1.134-2.458 2.524 0 .2.016.392.056.575-2.045-.103-3.855-1.108-5.07-2.64-.213.378-.338.81-.338 1.276 0 .874.439 1.648 1.093 2.097A2.385 2.385 0 015.48 9.52v.028c0 1.226.852 2.244 1.971 2.48a2.4 2.4 0 01-.645.082c-.157 0-.317-.009-.466-.043.319 1 1.111 1.758 2.299 1.758-.837.671-1.839.866-3.039.866-.201 0-.406.025-.6 0C6.09 15.412 7.381 16 8.774 16c4.342 0 7.171-3.715 6.993-7.506z" fill="#404E5A"/></svg>