<svg width="24" height="25" fill="none" xmlns="http://www.w3.org/2000/svg"><path fill-rule="evenodd" clip-rule="evenodd" d="M12 12.904a.75.75 0 01.75.75V21.5a.75.75 0 01-1.5 0v-7.846a.75.75 0 01.75-.75z" fill="#1A62A6B8"/><path fill-rule="evenodd" clip-rule="evenodd" d="M9 7.635c-.69 0-1.25.56-1.25 1.25v2.769c0 .69.56 1.25 1.25 1.25h6c.69 0 1.25-.56 1.25-1.25v-2.77c0-.69-.56-1.25-1.25-1.25H9zm-2.75 1.25A2.75 2.75 0 019 6.135h6a2.75 2.75 0 012.75 2.75v2.769a2.75 2.75 0 01-2.75 2.75H9a2.75 2.75 0 01-2.75-2.75v-2.77z" fill="#1A62A6B8"/><path fill-rule="evenodd" clip-rule="evenodd" d="M15.333 2.75a.75.75 0 01.75.75v3.385a.75.75 0 01-1.5 0V3.5a.75.75 0 01.75-.75zm-6.666 0a.75.75 0 01.75.75v3.385a.75.75 0 01-1.5 0V3.5a.75.75 0 01.75-.75z" fill="#1A62A6B8"/></svg>