<svg width="50" height="50" fill="none" xmlns="http://www.w3.org/2000/svg"><path d="M37.54 4.849a11.075 11.075 0 0111.063 11.063v.055c0 .036.005.091.009.163.227 4.018-.43 14.865-11.405 28.765a.675.675 0 01-1.17-.637c.031-.092 3.03-9.076.981-17.297a11.063 11.063 0 01.525-22.114l-.003.002zm9.711 11.024a9.712 9.712 0 10-9.711 9.75.676.676 0 01.651.496c1.554 5.655.792 11.588.02 15.188 8.705-12.195 9.252-21.503 9.049-25.1a2.848 2.848 0 01-.009-.334zM12.414 4.849a11.075 11.075 0 0111.063 11.063v.055c0 .036.005.091.009.163.227 4.018-.43 14.865-11.405 28.765a.675.675 0 01-1.17-.637c.031-.092 3.03-9.076.981-17.297a11.063 11.063 0 01.525-22.114l-.003.002zm9.711 11.024a9.711 9.711 0 10-9.711 9.75.676.676 0 01.651.496c1.554 5.655.792 11.588.02 15.188 8.705-12.195 9.253-21.503 9.05-25.1a2.87 2.87 0 01-.01-.334z" fill="#576073"/></svg>