<svg width="42" height="44" fill="none" xmlns="http://www.w3.org/2000/svg"><path fill-rule="evenodd" clip-rule="evenodd" d="M40.118 9.474c2.51 1.324 2.51 4.913 0 6.237l-3.003 1.585 3.003 1.585c2.51 1.325 2.51 4.913 0 6.238l-3.003 1.585 3.003 1.585c2.51 1.324 2.51 4.913 0 6.237L23.2 43.456a4.718 4.718 0 01-4.403 0L1.882 34.527c-2.51-1.325-2.51-4.914 0-6.238l3.003-1.585-3.003-1.585c-2.51-1.325-2.51-4.913 0-6.238l3.003-1.585-3.003-1.585c-2.51-1.324-2.51-4.913 0-6.237L18.8.545a4.717 4.717 0 014.402 0l16.917 8.929zm-4.171 3.118L21 4.704 6.053 12.592 21 20.482l14.947-7.89zM9.925 29.364l-3.872 2.044L21 39.296l14.947-7.888-3.872-2.044-8.874 4.683a4.717 4.717 0 01-4.403 0l-8.873-4.683zm13.276-4.724l8.874-4.684L35.947 22 21 29.889 6.053 22l3.872-2.044 8.873 4.684a4.717 4.717 0 004.404 0z" fill="#fff"/></svg>