<svg width="22" height="22" fill="none" xmlns="http://www.w3.org/2000/svg"><path d="M11 0C6.52 0 2.873 3.646 2.873 8.127c0 1.475.662 3.062.69 3.129.213.507.635 1.295.939 1.757l5.572 8.443c.228.346.566.544.926.544.36 0 .698-.198.926-.544l5.573-8.443c.304-.462.725-1.25.94-1.757.027-.067.688-1.653.688-3.13C19.127 3.647 15.481 0 11 0zm6.557 10.885a12.074 12.074 0 01-.857 1.601l-5.572 8.444c-.11.166-.145.166-.255 0L5.3 12.486a12.016 12.016 0 01-.856-1.602c-.008-.02-.615-1.48-.615-2.757C3.83 4.173 7.046.957 11 .957s7.17 3.216 7.17 7.17c0 1.28-.607 2.743-.613 2.758z" fill="#394858"/><path d="M11 3.825a4.307 4.307 0 00-4.302 4.302A4.307 4.307 0 0011 12.43a4.307 4.307 0 004.303-4.303A4.307 4.307 0 0011 3.825zm0 7.649a3.35 3.35 0 01-3.346-3.347A3.35 3.35 0 0111 4.781a3.35 3.35 0 013.346 3.346A3.35 3.35 0 0111 11.474z" fill="#394858"/></svg>