<svg width="39" height="39" fill="none" xmlns="http://www.w3.org/2000/svg"><mask id="a" fill="#fff"><path d="M36.375 25.726c.784.29 1.66-.11 1.888-.915a19.5 19.5 0 10-4.497 7.983c.57-.612.458-1.568-.196-2.088-.653-.52-1.6-.407-2.178.196a16.475 16.475 0 114.022-7.14c-.216.806.178 1.675.961 1.964z"/></mask><path d="M36.375 25.726c.784.29 1.66-.11 1.888-.915a19.5 19.5 0 10-4.497 7.983c.57-.612.458-1.568-.196-2.088-.653-.52-1.6-.407-2.178.196a16.475 16.475 0 114.022-7.14c-.216.806.178 1.675.961 1.964z" stroke="#fff" stroke-width="6" mask="url(#a)"/><path d="M17 10a2 2 0 114 0v10h-4V10z" fill="#fff"/><path d="M26.922 24.034c.785.777.785 2.05.008 2.835a2.008 2.008 0 01-2.822.034L17 20l2.814-3 7.108 7.034z" fill="#fff"/></svg>