<svg width="14" height="16" fill="none" xmlns="http://www.w3.org/2000/svg"><path fill-rule="evenodd" clip-rule="evenodd" d="M7 0C4.852 0 3.111 1.79 3.111 4S4.852 8 7 8c2.148 0 3.889-1.79 3.889-4S9.148 0 7 0zM4.667 4C4.667 2.675 5.71 1.6 7 1.6c1.289 0 2.333 1.075 2.333 2.4S8.29 6.4 7 6.4C5.711 6.4 4.667 5.325 4.667 4zm-.778 5.6C1.74 9.6 0 11.39 0 13.6v.8c0 .884.696 1.6 1.556 1.6h10.888c.86 0 1.556-.716 1.556-1.6v-.8c0-2.21-1.741-4-3.889-4H3.89zm-2.333 4c0-1.325 1.044-2.4 2.333-2.4h6.222c1.289 0 2.333 1.075 2.333 2.4v.8H1.556v-.8z" fill="#fff"/></svg>