<svg width="50" height="50" viewBox="0 0 50 50" fill="none" xmlns="http://www.w3.org/2000/svg">
<path d="M12.4601 45.1513C9.52701 45.1481 6.715 43.9815 4.64101 41.9075C2.56703 39.8335 1.40045 37.0215 1.39723 34.0885C1.39723 34.0702 1.39723 34.0513 1.39723 34.0331C1.39723 33.9966 1.3925 33.9419 1.38844 33.8696C1.16142 29.852 1.81817 19.0047 12.7932 5.10537C12.892 4.98054 13.0318 4.89462 13.1878 4.86277C13.3438 4.83093 13.506 4.8552 13.6459 4.93131C13.7857 5.00742 13.8942 5.13048 13.9522 5.27877C14.0102 5.42706 14.0139 5.59107 13.9628 5.74185C13.9317 5.83375 10.9324 14.8182 12.9817 23.0392C15.8681 23.1746 18.587 24.4341 20.5569 26.5482C22.5268 28.6623 23.5913 31.4632 23.5228 34.3521C23.4543 37.2409 22.2583 39.9882 20.1904 42.0066C18.1225 44.025 15.347 45.1542 12.4574 45.1527L12.4601 45.1513ZM2.74858 34.127C2.75606 36.0461 3.33197 37.92 4.40362 39.5121C5.47527 41.1041 6.9946 42.343 8.76978 43.0722C10.545 43.8015 12.4964 43.9884 14.3778 43.6094C16.2591 43.2304 17.986 42.3025 19.3404 40.9428C20.6948 39.5832 21.616 37.8527 21.9876 35.9699C22.3593 34.0871 22.1648 32.1364 21.4286 30.364C20.6925 28.5917 19.4477 27.0772 17.8515 26.0118C16.2553 24.9463 14.3792 24.3777 12.4601 24.3777C12.3121 24.3776 12.1682 24.329 12.0506 24.2393C11.9329 24.1496 11.8479 24.0237 11.8087 23.881C10.2547 18.2256 11.0168 12.2932 11.7891 8.69321C3.08371 20.8878 2.53709 30.1959 2.74047 33.7939C2.74965 33.9047 2.75235 34.0159 2.74858 34.127Z" fill="#576073"/>
<path d="M37.586 45.1513C34.653 45.1481 31.841 43.9815 29.767 41.9075C27.693 39.8335 26.5264 37.0215 26.5232 34.0885C26.5232 34.0702 26.5232 34.0513 26.5232 34.0331C26.5232 33.9966 26.5185 33.9419 26.5144 33.8696C26.2874 29.852 26.9441 19.0047 37.9191 5.10537C38.018 4.98054 38.1577 4.89462 38.3137 4.86277C38.4698 4.83093 38.632 4.8552 38.7719 4.93131C38.9117 5.00742 39.0202 5.13048 39.0782 5.27877C39.1361 5.42706 39.1399 5.59107 39.0887 5.74185C39.0577 5.83375 36.0583 14.8182 38.1077 23.0392C40.9941 23.1746 43.713 24.4341 45.6829 26.5482C47.6528 28.6623 48.7173 31.4632 48.6488 34.3521C48.5803 37.2409 47.3842 39.9882 45.3164 42.0066C43.2485 44.025 40.473 45.1542 37.5833 45.1527L37.586 45.1513ZM27.8746 34.127C27.882 36.0461 28.458 37.92 29.5296 39.5121C30.6012 41.1041 32.1206 42.343 33.8958 43.0722C35.6709 43.8015 37.6224 43.9884 39.5037 43.6094C41.3851 43.2304 43.112 42.3025 44.4664 40.9428C45.8208 39.5832 46.7419 37.8527 47.1136 35.9699C47.4853 34.0871 47.2907 32.1364 46.5546 30.364C45.8185 28.5917 44.5737 27.0772 42.9775 26.0118C41.3813 24.9463 39.5052 24.3777 37.586 24.3777C37.4381 24.3776 37.2942 24.329 37.1765 24.2393C37.0589 24.1496 36.9739 24.0237 36.9347 23.881C35.3806 18.2256 36.1428 12.2932 36.9151 8.69321C28.2097 20.8878 27.6624 30.1959 27.8658 33.7939C27.8752 33.9047 27.8781 34.0159 27.8746 34.127Z" fill="#576073"/>
</svg>
