<svg width="22" height="22" fill="none" xmlns="http://www.w3.org/2000/svg"><g clip-path="url(#clip0_44_1999)"><path d="M11 0C4.926 0 0 4.926 0 11s4.926 11 11 11 11-4.926 11-11S17.074 0 11 0zM7.804 16.629h-2.68v-8.06h2.68v8.06zm-1.34-9.16h-.017c-.9 0-1.48-.62-1.48-1.393 0-.79.598-1.392 1.515-1.392.916 0 1.48.601 1.498 1.392 0 .774-.582 1.393-1.516 1.393zm11 9.16h-2.68v-4.312c0-1.084-.387-1.823-1.356-1.823-.74 0-1.181.499-1.375.98-.07.172-.088.413-.088.654v4.5H9.286s.035-7.303 0-8.059h2.679V9.71c.356-.549.993-1.33 2.414-1.33 1.763 0 3.084 1.152 3.084 3.627v4.622z" fill="#fff"/></g><defs><clipPath id="clip0_44_1999"><path fill="#fff" d="M0 0h22v22H0z"/></clipPath></defs></svg>