<svg width="16" height="12" viewBox="0 0 16 12" fill="none" xmlns="http://www.w3.org/2000/svg">
<path d="M1.45455 1.45455C1.45455 0.651223 2.10577 0 2.90909 0H14.5455C15.3488 0 16 0.651222 16 1.45455V10.1818C16 10.9851 15.3488 11.6364 14.5455 11.6364H2.90909C2.10577 11.6364 1.45455 10.9851 1.45455 10.1818V9.45455H2.90909V10.1818H14.5455V2.48917L9.50168 7.53294C9.07565 7.95897 8.38493 7.95897 7.9589 7.53294L2.90909 2.48313V2.90909H1.45455V1.45455Z" fill="#4F5D77"/>
<path d="M0.727273 5.09091C0.727273 4.68925 1.05288 4.36364 1.45455 4.36364H3.63636C4.03803 4.36364 4.36364 4.68925 4.36364 5.09091C4.36364 5.49257 4.03803 5.81818 3.63636 5.81818H1.45455C1.05288 5.81818 0.727273 5.49257 0.727273 5.09091Z" fill="#4F5D77"/>
<path d="M0.727273 6.54545C0.325611 6.54545 0 6.87107 0 7.27273C0 7.67439 0.325611 8 0.727273 8H4.36364C4.7653 8 5.09091 7.67439 5.09091 7.27273C5.09091 6.87107 4.7653 6.54545 4.36364 6.54545H0.727273Z" fill="#4F5D77"/>
</svg>
