<svg width="24" height="25" fill="none" xmlns="http://www.w3.org/2000/svg"><path fill-rule="evenodd" clip-rule="evenodd" d="M12 3.25a7.25 7.25 0 00-7.25 7.25c0 .907.422 2.07 1.154 3.371.72 1.28 1.69 2.605 2.677 3.811A51.386 51.386 0 0012 21.45a51.376 51.376 0 003.42-3.768c.985-1.206 1.956-2.531 2.676-3.811.732-1.3 1.154-2.464 1.154-3.371A7.25 7.25 0 0012 3.25zm0 19.25l-.516.544-.007-.006-.018-.018-.07-.067-.26-.254a52.924 52.924 0 01-3.71-4.068c-1.014-1.24-2.043-2.64-2.823-4.024-.768-1.364-1.346-2.805-1.346-4.107a8.75 8.75 0 0117.5 0c0 1.302-.578 2.743-1.346 4.107-.78 1.384-1.81 2.783-2.823 4.024a52.92 52.92 0 01-3.97 4.322l-.07.067-.018.018-.005.004-.001.002L12 22.5zm0 0l.517.544-.517.49-.516-.49L12 22.5z" fill="#1A62A6B8"/><path d="M12 11.5a1 1 0 100-2 1 1 0 000 2z" fill="#1A62A6B8"/><path fill-rule="evenodd" clip-rule="evenodd" d="M12 10.25a.25.25 0 100 .5.25.25 0 000-.5zm-1.75.25a1.75 1.75 0 113.5 0 1.75 1.75 0 01-3.5 0z" fill="#1A62A6B8"/></svg>