<svg width="24" height="25" fill="none" xmlns="http://www.w3.org/2000/svg"><path fill-rule="evenodd" clip-rule="evenodd" d="M8 13.25a6.25 6.25 0 00-6.25 6.25v1a.75.75 0 01-1.5 0v-1a7.75 7.75 0 0115.5 0v1a.75.75 0 01-1.5 0v-1A6.25 6.25 0 008 13.25z" fill="#1A62A6B8"/><path fill-rule="evenodd" clip-rule="evenodd" d="M18 10.25a4.25 4.25 0 00-4.25 4.25h-1.5a5.75 5.75 0 0111.5 0v.5a.75.75 0 01-1.5 0v-.5A4.25 4.25 0 0018 10.25zm-10-5a3.25 3.25 0 100 6.5 3.25 3.25 0 000-6.5zM3.25 8.5a4.75 4.75 0 119.5 0 4.75 4.75 0 01-9.5 0z" fill="#1A62A6B8"/><path fill-rule="evenodd" clip-rule="evenodd" d="M18 4.25a2.25 2.25 0 100 4.5 2.25 2.25 0 000-4.5zM14.25 6.5a3.75 3.75 0 117.5 0 3.75 3.75 0 01-7.5 0z" fill="#1A62A6B8"/></svg>