<svg width="24" height="25" fill="none" xmlns="http://www.w3.org/2000/svg"><path fill-rule="evenodd" clip-rule="evenodd" d="M7.512 8.941a.75.75 0 01.055 1.06l-.01.01a.75.75 0 11-1.114-1.003l.01-.01a.75.75 0 011.059-.057zm4 0a.75.75 0 01.056 1.06l-.01.01a.75.75 0 11-1.115-1.003l.01-.01a.75.75 0 011.059-.057zm-4 4a.75.75 0 01.055 1.06l-.01.01a.75.75 0 11-1.114-1.003l.01-.01a.75.75 0 011.059-.057zm4 0a.75.75 0 01.056 1.06l-.01.01a.75.75 0 11-1.115-1.003l.01-.01a.75.75 0 011.059-.057zm-4 4a.75.75 0 01.055 1.06l-.01.01a.75.75 0 11-1.114-1.003l.01-.01a.75.75 0 011.059-.057zm4 0a.75.75 0 01.056 1.06l-.01.01a.75.75 0 11-1.115-1.003l.01-.01a.75.75 0 011.059-.057z" fill="#1A62A6B8"/><path fill-rule="evenodd" clip-rule="evenodd" d="M20.25 20.75v-10.5h-4.5v2.5H17a.75.75 0 010 1.5h-1.25v2.5H17a.75.75 0 010 1.5h-1.25v2.5h4.5zm-6 0V4.25h-4.5V5.5a.75.75 0 01-.75.75H3.75v14.5h10.5zm1.5-12h4.65c.746 0 1.35.604 1.35 1.35v10.8a1.35 1.35 0 01-1.35 1.35H3.6a1.35 1.35 0 01-1.35-1.35V6.1c0-.746.604-1.35 1.35-1.35h4.65V4.1c0-.746.604-1.35 1.35-1.35h4.8c.746 0 1.35.604 1.35 1.35v4.65z" fill="#1A62A6B8"/></svg>