<svg width="24" height="25" fill="none" xmlns="http://www.w3.org/2000/svg"><path fill-rule="evenodd" clip-rule="evenodd" d="M11.5 4.25a7.75 7.75 0 00-6.577 11.852.75.75 0 11-1.271.796A9.25 9.25 0 0111.5 2.75a.75.75 0 010 1.5zM19.25 10a.75.75 0 01.75-.75h2.5a.75.75 0 010 1.5h-1.75V12a9.21 9.21 0 01-1.402 4.898.75.75 0 01-1.271-.796A7.71 7.71 0 0019.25 12v-2zM8 18.25a1.25 1.25 0 110 2.5 1.25 1.25 0 010-2.5zm2.75 1.25a2.75 2.75 0 10-5.5 0 2.75 2.75 0 005.5 0zM15 18.25a1.25 1.25 0 110 2.5 1.25 1.25 0 010-2.5zm2.75 1.25a2.75 2.75 0 10-5.5 0 2.75 2.75 0 005.5 0z" fill="#1A62A6B8"/><path fill-rule="evenodd" clip-rule="evenodd" d="M11.5 2.75a.75.75 0 01.75.75v9a.75.75 0 01-1.5 0v-9a.75.75 0 01.75-.75z" fill="#1A62A6B8"/><path fill-rule="evenodd" clip-rule="evenodd" d="M2.75 12.5a.75.75 0 01.75-.75h16a.75.75 0 010 1.5h-16a.75.75 0 01-.75-.75z" fill="#1A62A6B8"/></svg>