<svg width="24" height="25" fill="none" xmlns="http://www.w3.org/2000/svg"><path fill-rule="evenodd" clip-rule="evenodd" d="M2.36 10.391a.75.75 0 01.249-1.031l9-5.5a.75.75 0 01.782 0l9 5.5a.75.75 0 01-.782 1.28L12 5.379l-8.609 5.26a.75.75 0 01-1.031-.248zM4.25 20.5a.75.75 0 01.75-.75h14a.75.75 0 010 1.5H5a.75.75 0 01-.75-.75z" fill="#1A62A6B8"/><path fill-rule="evenodd" clip-rule="evenodd" d="M9.25 9.5a.75.75 0 01.75-.75h4a.75.75 0 010 1.5h-4a.75.75 0 01-.75-.75zM6 11.75a.75.75 0 01.75.75v5a.75.75 0 01-1.5 0v-5a.75.75 0 01.75-.75zm4 0a.75.75 0 01.75.75v5a.75.75 0 01-1.5 0v-5a.75.75 0 01.75-.75zm4 0a.75.75 0 01.75.75v5a.75.75 0 01-1.5 0v-5a.75.75 0 01.75-.75zm4 0a.75.75 0 01.75.75v5a.75.75 0 01-1.5 0v-5a.75.75 0 01.75-.75z" fill="#1A62A6B8"/></svg>