<svg width="24" height="25" fill="none" xmlns="http://www.w3.org/2000/svg"><path fill-rule="evenodd" clip-rule="evenodd" d="M.25 4.5A.75.75 0 011 3.75h18a.75.75 0 010 1.5H1.75V16.5a.75.75 0 01-1.5 0v-12z" fill="#1A62A6B8"/><path fill-rule="evenodd" clip-rule="evenodd" d="M5.75 9.25v10.5h5.5V9.25h-5.5zm7 0v10.5h2.5V9.25h-2.5zm4 0v10.5h5.5V9.25h-5.5zM4.25 9.1c0-.746.604-1.35 1.35-1.35h16.8c.746 0 1.35.604 1.35 1.35v10.8a1.35 1.35 0 01-1.35 1.35H5.6a1.35 1.35 0 01-1.35-1.35V9.1z" fill="#1A62A6B8"/></svg>