<svg width="22" height="22" viewBox="0 0 22 22" fill="none" xmlns="http://www.w3.org/2000/svg">
<g clip-path="url(#clip0_79_237)">
<path d="M17.387 13.6282C16.9366 13.1593 16.3933 12.9085 15.8176 12.9085C15.2464 12.9085 14.6985 13.1546 14.2296 13.6236L12.7623 15.0862C12.6416 15.0212 12.5209 14.9608 12.4048 14.9005C12.2376 14.8169 12.0798 14.738 11.9451 14.6544C10.5707 13.7815 9.32166 12.6439 8.1237 11.1719C7.54329 10.4383 7.15326 9.82076 6.87002 9.19392C7.25077 8.84568 7.60366 8.48351 7.94726 8.13526C8.07727 8.00525 8.20728 7.8706 8.33729 7.74059C9.31237 6.7655 9.31237 5.50254 8.33729 4.52746L7.06968 3.25985C6.92574 3.11591 6.77716 2.96732 6.63786 2.81874C6.35927 2.53086 6.06674 2.23369 5.76493 1.9551C5.31453 1.50934 4.77592 1.27254 4.20944 1.27254C3.64296 1.27254 3.09506 1.50934 2.63074 1.9551C2.62609 1.95974 2.62609 1.95974 2.62145 1.96438L1.04274 3.55702C0.448408 4.15135 0.109451 4.8757 0.0351585 5.71613C-0.0762795 7.07196 0.32304 8.33492 0.629495 9.16142C1.3817 11.1905 2.50537 13.071 4.18158 15.0862C6.21533 17.5146 8.66232 19.4323 11.4576 20.7835C12.5255 21.2896 13.951 21.8886 15.5436 21.9907C15.6411 21.9954 15.7433 22 15.8361 22C16.9087 22 17.8095 21.6146 18.5153 20.8485C18.5199 20.8392 18.5292 20.8346 18.5339 20.8253C18.7753 20.5327 19.0539 20.2681 19.3464 19.9848C19.5461 19.7945 19.7504 19.5948 19.9501 19.3859C20.4097 18.9076 20.6512 18.3504 20.6512 17.7793C20.6512 17.2035 20.4051 16.651 19.9361 16.1867L17.387 13.6282ZM19.0493 18.5176C19.0446 18.5176 19.0446 18.5222 19.0493 18.5176C18.8682 18.7126 18.6825 18.889 18.4828 19.084C18.181 19.3719 17.8745 19.6737 17.5866 20.0127C17.1177 20.5142 16.5651 20.751 15.8408 20.751C15.7711 20.751 15.6968 20.751 15.6272 20.7463C14.2481 20.6581 12.9666 20.1195 12.0055 19.6598C9.37738 18.3876 7.06968 16.5813 5.15202 14.2922C3.56867 12.3838 2.51001 10.6194 1.80888 8.72496C1.37706 7.56879 1.21919 6.66799 1.28884 5.81828C1.33527 5.27502 1.54422 4.82462 1.9296 4.43923L3.51295 2.85589C3.74047 2.6423 3.98192 2.52621 4.21873 2.52621C4.51125 2.52621 4.74806 2.70266 4.89664 2.85124C4.90129 2.85589 4.90593 2.86053 4.91057 2.86517C5.19381 3.12984 5.46312 3.40379 5.74636 3.69631C5.8903 3.8449 6.03888 3.99348 6.18747 4.14671L7.45507 5.41432C7.94726 5.9065 7.94726 6.36154 7.45507 6.85372C7.32042 6.98838 7.19041 7.12303 7.05575 7.25304C6.66572 7.65236 6.29426 8.02382 5.8903 8.386C5.88101 8.39528 5.87172 8.39993 5.86708 8.40921C5.46776 8.80853 5.54205 9.19857 5.62563 9.46323C5.63028 9.47716 5.63492 9.49109 5.63956 9.50502C5.96923 10.3037 6.43356 11.0559 7.13933 11.952L7.14398 11.9567C8.42551 13.5354 9.7767 14.7658 11.2672 15.7084C11.4576 15.8291 11.6526 15.9266 11.8383 16.0195C12.0055 16.1031 12.1633 16.182 12.298 16.2656C12.3166 16.2749 12.3351 16.2888 12.3537 16.2981C12.5116 16.377 12.6602 16.4142 12.8134 16.4142C13.1988 16.4142 13.4402 16.1727 13.5192 16.0938L15.1071 14.5058C15.265 14.3479 15.5158 14.1576 15.8083 14.1576C16.0962 14.1576 16.333 14.3386 16.4769 14.4965C16.4816 14.5012 16.4816 14.5012 16.4862 14.5058L19.0446 17.0642C19.5229 17.5378 19.5229 18.0254 19.0493 18.5176Z" fill="#394858"/>
<path d="M11.8894 5.23323C13.1059 5.43753 14.211 6.01329 15.0932 6.89551C15.9754 7.77773 16.5466 8.88282 16.7555 10.0994C16.8066 10.4058 17.0713 10.6194 17.3731 10.6194C17.4102 10.6194 17.4427 10.6148 17.4799 10.6101C17.8235 10.5544 18.051 10.2294 17.9953 9.88577C17.7445 8.41385 17.048 7.07195 15.9847 6.00865C14.9214 4.94535 13.5795 4.24886 12.1076 3.99812C11.764 3.9424 11.4436 4.16992 11.3833 4.50888C11.3229 4.84784 11.5458 5.17751 11.8894 5.23323Z" fill="#394858"/>
<path d="M21.9745 9.70468C21.5612 7.2809 20.419 5.07536 18.6638 3.32021C16.9087 1.56506 14.7031 0.422821 12.2794 0.00957176C11.9404 -0.0507905 11.62 0.181372 11.5597 0.520329C11.5039 0.86393 11.7315 1.18431 12.0751 1.24468C14.2388 1.61149 16.2122 2.63765 17.7816 4.20243C19.351 5.77185 20.3725 7.74523 20.7394 9.90898C20.7904 10.2154 21.0551 10.429 21.3569 10.429C21.3941 10.429 21.4266 10.4244 21.4637 10.4197C21.8027 10.3687 22.0348 10.0436 21.9745 9.70468Z" fill="#394858"/>
</g>
<defs>
<clipPath id="clip0_79_237">
<rect width="22" height="22" fill="white"/>
</clipPath>
</defs>
</svg>
