<svg width="10" height="10" viewBox="0 0 10 10" fill="none" xmlns="http://www.w3.org/2000/svg">
<path d="M4.61958 1.17082C4.73932 0.802296 5.26068 0.802296 5.38042 1.17082L6.03276 3.17852C6.08631 3.34333 6.2399 3.45492 6.41319 3.45492H8.52421C8.9117 3.45492 9.07281 3.95076 8.75932 4.17852L7.05147 5.41935C6.91128 5.52121 6.85261 5.70175 6.90616 5.86656L7.5585 7.87427C7.67824 8.24279 7.25645 8.54924 6.94297 8.32148L5.23511 7.08065C5.09492 6.97879 4.90508 6.97879 4.76489 7.08065L3.05703 8.32148C2.74355 8.54924 2.32176 8.24279 2.4415 7.87426L3.09384 5.86656C3.14739 5.70175 3.08872 5.52121 2.94853 5.41935L1.24068 4.17852C0.927191 3.95076 1.0883 3.45492 1.47579 3.45492H3.58681C3.7601 3.45492 3.91369 3.34333 3.96724 3.17852L4.61958 1.17082Z" fill="#F3B105"/>
</svg>
