<svg width="18" height="18" viewBox="0 0 18 18" fill="none" xmlns="http://www.w3.org/2000/svg">
<path d="M16.1883 3.59413C16.0325 3.59878 15.8845 3.66393 15.7758 3.77577L6.60006 12.9516L2.82428 9.17577C2.76899 9.11819 2.70277 9.07222 2.62949 9.04054C2.55622 9.00887 2.47736 8.99214 2.39753 8.99133C2.31771 8.99052 2.23852 9.00564 2.16462 9.03581C2.09071 9.06599 2.02357 9.11061 1.96712 9.16705C1.91067 9.2235 1.86606 9.29064 1.83588 9.36455C1.80571 9.43846 1.79059 9.51764 1.7914 9.59746C1.79221 9.67729 1.80894 9.75615 1.84061 9.82943C1.87228 9.9027 1.91826 9.96892 1.97584 10.0242L6.17584 14.2242C6.28837 14.3367 6.44096 14.3999 6.60006 14.3999C6.75916 14.3999 6.91175 14.3367 7.02428 14.2242L16.6243 4.62421C16.711 4.53993 16.7702 4.43143 16.7942 4.31292C16.8181 4.19441 16.8058 4.07141 16.7586 3.96006C16.7115 3.84871 16.6319 3.75419 16.5301 3.6889C16.4283 3.6236 16.3092 3.59057 16.1883 3.59413Z" fill="white"/>
</svg>
