<svg width="18" height="18" viewBox="0 0 18 18" fill="none" xmlns="http://www.w3.org/2000/svg">
<path d="M16.1884 3.59413C16.0325 3.59878 15.8845 3.66393 15.7759 3.77577L6.60007 12.9516L2.82429 9.17577C2.76901 9.11819 2.70279 9.07222 2.62951 9.04054C2.55623 9.00887 2.47737 8.99214 2.39755 8.99133C2.31772 8.99052 2.23854 9.00564 2.16463 9.03581C2.09073 9.06599 2.02358 9.11061 1.96714 9.16705C1.91069 9.2235 1.86607 9.29064 1.8359 9.36455C1.80572 9.43846 1.7906 9.51764 1.79141 9.59746C1.79223 9.67729 1.80896 9.75615 1.84063 9.82943C1.8723 9.9027 1.91827 9.96892 1.97586 10.0242L6.17586 14.2242C6.28838 14.3367 6.44097 14.3999 6.60007 14.3999C6.75918 14.3999 6.91177 14.3367 7.02429 14.2242L16.6243 4.62421C16.711 4.53993 16.7702 4.43143 16.7942 4.31292C16.8182 4.19441 16.8058 4.07141 16.7587 3.96006C16.7115 3.84871 16.6319 3.75419 16.5301 3.6889C16.4283 3.6236 16.3092 3.59057 16.1884 3.59413Z" fill="#5D8AB9"/>
</svg>
