<svg width="22" height="22" viewBox="0 0 22 22" fill="none" xmlns="http://www.w3.org/2000/svg">
<path d="M11.0001 0C6.5188 0 2.87317 3.64563 2.87317 8.1269C2.87317 9.60217 3.53479 11.1888 3.56252 11.2558C3.77621 11.763 4.19785 12.5508 4.50189 13.0126L10.0741 21.4555C10.3021 21.8016 10.6396 22 11.0001 22C11.3605 22 11.698 21.8016 11.9261 21.456L17.4987 13.0126C17.8032 12.5508 18.2244 11.763 18.4381 11.2558C18.4658 11.1893 19.127 9.60265 19.127 8.1269C19.127 3.64563 15.4813 0 11.0001 0ZM17.5566 10.8848C17.3658 11.3394 16.9733 12.0723 16.7004 12.4863L11.1277 20.9296C11.0178 21.0965 10.9829 21.0965 10.8729 20.9296L5.30024 12.4863C5.02727 12.0723 4.63479 11.3389 4.44405 10.8843C4.43592 10.8647 3.82927 9.40426 3.82927 8.1269C3.82927 4.17292 7.04609 0.956106 11.0001 0.956106C14.954 0.956106 18.1709 4.17292 18.1709 8.1269C18.1709 9.40617 17.5628 10.8704 17.5566 10.8848Z" fill="#394858"/>
<path d="M11.0001 3.82491C8.62747 3.82491 6.69757 5.75529 6.69757 8.1274C6.69757 10.4995 8.62747 12.4299 11.0001 12.4299C13.3726 12.4299 15.3025 10.4995 15.3025 8.1274C15.3025 5.75529 13.3726 3.82491 11.0001 3.82491ZM11.0001 11.4738C9.15524 11.4738 7.65368 9.97269 7.65368 8.1274C7.65368 6.28211 9.15524 4.78102 11.0001 4.78102C12.8449 4.78102 14.3464 6.28211 14.3464 8.1274C14.3464 9.97269 12.8449 11.4738 11.0001 11.4738Z" fill="#394858"/>
</svg>
